<svg height="104.764544" viewBox="0 0 164 18" width="954.521404" xmlns="http://www.w3.org/2000/svg"><path d="m14 1v1h-1v1h-1v1h-1v2h2v1h-1v1h-1v1h-1v1h-1v1h-1v1h-1v1h-1v1h-1v1h-1v3h1v-1h1v-1h1v-1h1v-1h1v-1h1v-1h1v-1h1v-1h1v-1h1v-1h1v-1h1v-1h-2v-2h1v-1h1v-1h1v-1zm9 0v12h2v-8h12v-4zm28 0v2h-10v4h2v-2h8v4h-12v8h4v-6h8v6h4v-16zm18 0v2h-12v14h4v-12h2v12h4v-12h2v12h4v-16zm8 0v12h-2v4h16v-4h-12v-2h12v-4h-12v-2h12v-4zm33 0v14h-14v2h16v-16zm18 0v14h-14v2h16v-16zm10 0v8h2v-8zm24 0v6h-4v8h-6v2h8v-8h4v-8zm-127 6v8h-14v2h16v-10zm113 0v2h4v-2zm-147 2v2h6v-2zm26 0v2h6v-2zm117 0v6h-12v2h14v-8z"/><path d="m4 0v2h-1v2h-1v2h-1v2h-1v2h6v2h-1v2h-1v2h1v-1h1v-1h1v-1h1v-1h1v-1h1v-1h1v-1h1v-1h1v-1h1v-1h1v-1h-3v-1h1v-1h1v-1h1v-1h1v-1zm0 16h-1v1h1zm16-16v16h16v-10h-10v4h6v2h-8v-8h12v-4zm18 0v16h4v-6h8v6h4v-16zm18 0v16h4v-12h2v12h4v-12h2v12h4v-16zm18 0v16h16v-4h-12v-2h12v-4h-12v-2h12v-4zm29 0v8h-8v8h16v-16zm10 0v16h16v-16zm18 0v16h14v-8h-6v-8zm16 0v8h4v8h8v-8h4v-8zm-105 4h8v2h-8z" fill="#fff"/><path d="m5 2v2h-1v2h1v1h1v-1h1v1h1v-1h1v-1h1v-1h1v-1h1v-1zm3 5v1h1v-1zm-1 0h-1v1h1zm-2 0h-1v1h1zm-1 0v-1h-1v1zm101-5v8h-8v4h1v-3h8v-2h1v-1h-1v-1h1v1h1v-1h1v-5zm3 6v1h1v-1zm7-6v12h1v-5h1v-1h-1v-1h1v1h1v-1h1v-1h4v4h-3v1h4v-2h1v-1h-1v-1h1v1h1v-1h1v-5zm11 6v1h1v-1zm-8 0v1h1v-1zm15-6v12h1v-5h1v-1h-1v-1h1v1h1v-1h1v-5zm3 6v1h1v-1zm13-6v4h4v8h1v-5h1v-1h-1v-1h1v1h1v-1h1v-1h4v-4zm7 6v1h1v-1zm-146-1v1h1v-1zm128 3v1h5v-1z" fill="#2f7f6f"/><path d="m4 6v1h1v-1zm1 1v1h1v-1zm1 0h1v-1h-1zm1 0v1h1v-1zm1 0h1v-1h-1zm1 0v1h-1v2h1v-1h1v-2zm-5 0h-1v1h1zm102 0v1h1v-1zm1 1v1h-1v2h-8v3h11v-5h-1v-1zm1 0h1v-1h-1zm8-1v1h1v-1zm1 1v1h-1v5h11v-5h-1v-1h-1v1h-1v2h-4v-1h-1v-1h-1v-1zm1 0h1v-1h-1zm7 0v-1h-1v1zm1 0h1v-1h-1zm8-1v1h1v-1zm1 1v1h-1v5h9v-3h-5v-1h-1v-1h-1v-1zm1 0h1v-1h-1zm18-1v1h1v-1zm1 1v1h-1v5h3v-5h-1v-1zm1 0h1v-1h-1z" fill="#cf0"/></svg>